<svg width="35" height="35" viewBox="0 0 35 35" fill="none" xmlns="http://www.w3.org/2000/svg">
<path d="M11.7066 28.182C11.7066 28.3266 11.5444 28.4425 11.3397 28.4425C11.1069 28.4642 10.9446 28.3485 10.9446 28.182C10.9446 28.0372 11.1069 27.9215 11.3115 27.9215C11.5232 27.8998 11.7066 28.0155 11.7066 28.182ZM9.51209 27.8562C9.4627 28.001 9.60383 28.1674 9.81553 28.2108C9.999 28.2832 10.2107 28.2108 10.253 28.0662C10.2954 27.9215 10.1613 27.755 9.94959 27.6898C9.76613 27.6392 9.5615 27.7115 9.51209 27.8562ZM12.6311 27.7333C12.4264 27.7838 12.2853 27.9215 12.3064 28.0879C12.3276 28.2325 12.5111 28.3268 12.7228 28.2761C12.9274 28.2254 13.0686 28.0879 13.0474 27.9432C13.0262 27.8055 12.8357 27.7115 12.6311 27.7333ZM17.2742 0C7.48689 0 0 7.62084 0 17.6589C0 25.6851 4.92541 32.5532 11.9607 34.9705C12.8639 35.1369 13.1814 34.5652 13.1814 34.0948C13.1814 33.6461 13.1603 31.171 13.1603 29.6512C13.1603 29.6512 8.22077 30.7367 7.18347 27.4945C7.18347 27.4945 6.37903 25.3883 5.22178 24.8455C5.22178 24.8455 3.60584 23.7093 5.33467 23.731C5.33467 23.731 7.09173 23.8757 8.05847 25.5983C9.60383 28.3919 12.1936 27.5885 13.2026 27.1109C13.3649 25.9529 13.8236 25.1495 14.3317 24.6719C10.3871 24.2232 6.40725 23.6369 6.40725 16.6747C6.40725 14.6845 6.94355 13.6857 8.07258 12.4119C7.88911 11.9415 7.28931 10.0019 8.25605 7.49781C9.73084 7.0274 13.125 9.45188 13.125 9.45188C14.5363 9.04659 16.0534 8.83672 17.5564 8.83672C19.0595 8.83672 20.5766 9.04659 21.9878 9.45188C21.9878 9.45188 25.382 7.02016 26.8569 7.49781C27.8236 10.0091 27.2238 11.9415 27.0403 12.4119C28.1694 13.6929 28.8609 14.6916 28.8609 16.6747C28.8609 23.6586 24.7047 24.2159 20.76 24.6719C21.4092 25.2437 21.9597 26.3292 21.9597 28.03C21.9597 30.4689 21.9386 33.4869 21.9386 34.0803C21.9386 34.5507 22.2631 35.1225 23.1592 34.956C30.2158 32.5532 35 25.6851 35 17.6589C35 7.62084 27.0614 0 17.2742 0ZM6.85887 24.9613C6.76714 25.0337 6.78831 25.2001 6.90827 25.3378C7.02117 25.4535 7.18347 25.5042 7.2752 25.4101C7.36694 25.3378 7.34577 25.1713 7.22581 25.0337C7.11291 24.9179 6.95061 24.8672 6.85887 24.9613ZM6.09678 24.3751C6.04738 24.4692 6.11794 24.585 6.25908 24.6574C6.37197 24.7297 6.51311 24.708 6.5625 24.6067C6.61189 24.5126 6.54133 24.3968 6.4002 24.3244C6.25908 24.281 6.14617 24.3027 6.09678 24.3751ZM8.38306 26.9517C8.27016 27.0458 8.3125 27.2628 8.4748 27.4004C8.63709 27.5668 8.84173 27.5885 8.93347 27.4728C9.0252 27.3785 8.98286 27.1615 8.84173 27.0239C8.6865 26.8575 8.4748 26.8358 8.38306 26.9517ZM7.57863 25.8877C7.46572 25.9601 7.46572 26.1482 7.57863 26.3147C7.69153 26.4811 7.88206 26.5535 7.97378 26.4811C8.08669 26.3871 8.08669 26.1989 7.97378 26.0324C7.875 25.866 7.69153 25.7936 7.57863 25.8877Z" fill="white"/>
</svg>
