<svg width="35" height="35" viewBox="0 0 35 35" fill="none" xmlns="http://www.w3.org/2000/svg">
<path d="M17.5155 8.58312C17.2077 8.58312 16.9033 8.59882 16.6033 8.62954C16.3034 8.66026 16.0076 8.70579 15.7169 8.76555C15.4261 8.82531 15.1405 8.89932 14.8607 8.98666L14.0392 9.28828L13.2571 9.66592L12.5191 10.115L11.8296 10.6308L11.1932 11.2088L10.6147 11.8445L10.0983 12.5333L9.64869 13.2707L9.27083 14.0519C9.15724 14.3191 9.05622 14.593 8.96876 14.8726C8.8813 15.1523 8.8073 15.4377 8.74742 15.7281C8.68755 16.0186 8.64202 16.314 8.61119 16.6137C8.58035 16.9134 8.56488 17.2175 8.56488 17.525C8.56488 17.8324 8.58058 18.1365 8.61119 18.4362C8.64163 18.7336 8.6871 19.0292 8.74742 19.3219C8.8073 19.6134 8.8813 19.8978 8.96876 20.1774C9.05622 20.4571 9.15713 20.7309 9.27083 20.9982L9.64869 21.7794L10.0983 22.5166L10.6147 23.2055L11.1932 23.8413L11.8296 24.4193L12.5191 24.9351L13.2571 25.3841L14.0392 25.7618L14.8607 26.0634L15.7169 26.2845C16.0099 26.3448 16.3057 26.3902 16.6033 26.4206C16.9064 26.4515 17.2108 26.467 17.5155 26.4669C17.8233 26.4669 18.1277 26.4512 18.4275 26.4206C18.7251 26.3902 19.021 26.3448 19.314 26.2845L20.1703 26.0634L20.9917 25.7618L21.7737 25.3841L22.5118 24.9351L23.2014 24.4193L23.8378 23.8413L24.4164 23.2055L24.9327 22.5166L25.3824 21.7794L25.7602 20.9982L26.0623 20.1774C26.1498 19.8978 26.2238 19.6123 26.2836 19.3219L26.4199 18.4361C26.4506 18.1364 26.4663 17.8323 26.4663 17.5249C26.4663 17.2174 26.4506 16.9133 26.4199 16.6136C26.3894 16.3163 26.344 16.0207 26.2836 15.728C26.2238 15.4365 26.1498 15.1523 26.0623 14.8725L25.7602 14.0517L25.3824 13.2706L24.9327 12.5332L24.4164 11.8444L23.8378 11.2087L23.2014 10.6307L22.5118 10.1149L21.7737 9.66581L20.9917 9.28817L20.1703 8.98655L19.314 8.76544L18.4275 8.62943C18.1245 8.59848 17.8201 8.5831 17.5155 8.58312ZM17.5155 11.6695C17.719 11.6695 17.9198 11.6796 18.1176 11.6996L18.7007 11.7878L19.2639 11.9313L19.8032 12.1272L20.3159 12.3728L20.7981 12.6649L21.2488 13.0009L21.6644 13.3779L22.0417 13.793L22.3781 14.2433L22.6705 14.7261L22.916 15.2385C22.9898 15.4139 23.0553 15.5936 23.1123 15.7774C23.1692 15.9611 23.2171 16.149 23.2558 16.3402C23.2945 16.5315 23.3231 16.7262 23.344 16.9239L23.3741 17.5255C23.3741 17.7288 23.364 17.9295 23.344 18.1273C23.3241 18.3251 23.2947 18.5198 23.2558 18.7109C23.2169 18.9021 23.1689 19.0899 23.1123 19.2738L22.916 19.8127L22.6705 20.3251L22.3781 20.8078L22.0417 21.2582L21.6644 21.6733L21.2488 22.0503L20.7981 22.3863L20.3159 22.6784L19.8032 22.924L19.2639 23.1198L18.7007 23.2634L18.1176 23.3515C17.9175 23.3716 17.7165 23.3816 17.5154 23.3816C17.3142 23.3816 17.1132 23.3716 16.913 23.3515L16.33 23.2634C16.1386 23.2246 15.9506 23.1766 15.7666 23.1198L15.2273 22.924L14.7146 22.6784L14.2324 22.3863L13.7817 22.0503L13.3661 21.6733L12.9888 21.2582L12.6524 20.8078L12.36 20.3251L12.1145 19.8127L11.9182 19.2738L11.7747 18.7109L11.6865 18.1273C11.6664 17.9273 11.6564 17.7265 11.6564 17.5255C11.6564 17.3246 11.6664 17.1238 11.6865 16.9239C11.7063 16.7262 11.7358 16.5314 11.7747 16.3402C11.8132 16.1504 11.8612 15.9626 11.9184 15.7775L12.1146 15.2386L12.3601 14.7262L12.6526 14.2434L12.9889 13.7931L13.3662 13.378L13.7818 13.001L14.2325 12.665L14.7147 12.3729L15.2274 12.1273C15.4039 12.0532 15.5839 11.9878 15.7669 11.9314L16.3302 11.7879C16.5216 11.7491 16.7165 11.7195 16.9132 11.6997C17.1134 11.6796 17.3143 11.6695 17.5155 11.6695Z" fill="white"/>
<path d="M15.818 0.0315761C14.8446 0.0300063 13.9758 0.0340423 13.1954 0.0450307L11.1031 0.101094C10.4833 0.128004 9.93568 0.163097 9.44411 0.208508C9.19833 0.231158 8.96646 0.256499 8.74669 0.284418C8.53756 0.310777 8.329 0.34147 8.12114 0.376475C7.92323 0.410113 7.73542 0.44644 7.55535 0.485909C7.37527 0.525377 7.20327 0.567987 7.03732 0.613734C6.87509 0.658469 6.71413 0.707675 6.55462 0.761294C6.39832 0.813993 6.24582 0.869832 6.09524 0.929483C5.79407 1.04879 5.5003 1.18266 5.19778 1.33269C4.965 1.44818 4.74995 1.56513 4.54565 1.68891C4.34136 1.8127 4.14783 1.94344 3.95833 2.08584C3.76319 2.2332 3.57509 2.38968 3.39468 2.55475C3.20608 2.72653 3.01345 2.91546 2.8133 3.1266C2.5618 3.39043 2.34327 3.63644 2.14929 3.87784C2.0523 3.99849 1.96148 4.11779 1.87592 4.23777C1.79132 4.35601 1.71043 4.47686 1.63339 4.60016C1.55715 4.72238 1.48494 4.84684 1.41587 4.97489C1.34572 5.10514 1.27943 5.23743 1.21707 5.37159C1.08947 5.64563 0.970392 5.94074 0.851538 6.27017C0.763363 6.51371 0.684408 6.76049 0.614839 7.00998C0.543863 7.26496 0.480736 7.5317 0.424448 7.82021C0.368161 8.10871 0.31905 8.41896 0.275881 8.76207C0.229362 9.13817 0.1922 9.51536 0.164427 9.89331C0.133032 10.3088 0.107019 10.7661 0.0857148 11.275L0.0352581 12.9673L0.00812347 15.03L0.000274658 17.5234L0.0232605 21.1492L0.0950213 23.8963L0.1503 24.9694L0.21937 25.8585C0.241511 26.0982 0.269214 26.3373 0.302455 26.5757C0.332729 26.7874 0.365246 26.9726 0.400229 27.133C0.471213 27.4589 0.55515 27.782 0.651841 28.1013C0.74442 28.407 0.850294 28.7085 0.969158 29.005C1.08599 29.2954 1.21382 29.5755 1.35285 29.8451C1.49189 30.1146 1.64214 30.3736 1.8036 30.6224C1.96506 30.8712 2.13774 31.1099 2.32207 31.3383C2.5062 31.5667 2.70205 31.7854 2.90883 31.9935C3.11593 32.2021 3.33435 32.4005 3.56455 32.5891C3.79747 32.7799 4.03957 32.9591 4.29 33.1262C4.52244 33.2816 4.75241 33.4239 4.98407 33.5545C5.21572 33.6852 5.44939 33.8037 5.68957 33.9114C5.92974 34.0192 6.17597 34.1162 6.43319 34.2034C6.6904 34.2907 6.95839 34.3682 7.24162 34.4371C7.52485 34.5059 7.82467 34.5664 8.14199 34.6191C8.45931 34.6718 8.79849 34.717 9.16088 34.7559C9.52328 34.7948 9.90989 34.827 10.3253 34.8539C10.7407 34.8808 11.1848 34.9023 11.6619 34.9196C12.3989 34.9463 13.5145 34.9618 14.8011 34.9678L18.966 34.9594L22.9099 34.9041L24.4095 34.8619L25.3865 34.8117C25.5961 34.7947 25.8013 34.7745 25.9993 34.7508C26.1974 34.7272 26.3927 34.7001 26.5828 34.6694C26.773 34.6387 26.9589 34.6044 27.1416 34.5663C27.3221 34.5287 27.5017 34.4867 27.6802 34.4403C27.8569 34.3955 28.0312 34.3445 28.2036 34.2903C28.3761 34.2362 28.5467 34.1776 28.7164 34.1148C28.887 34.0516 29.0561 33.9843 29.2234 33.9129C29.3919 33.8411 29.5602 33.7644 29.7291 33.683C29.9885 33.5581 30.1972 33.454 30.3806 33.3523C30.553 33.2577 30.7191 33.1519 30.8777 33.0356C31.0343 32.9204 31.1899 32.7892 31.3693 32.6239C31.5487 32.4586 31.752 32.2595 32.0037 32.0076C32.2249 31.7865 32.4115 31.5944 32.5724 31.4195C32.7333 31.2447 32.8689 31.0874 32.9877 30.9358C33.101 30.792 33.2066 30.6422 33.3039 30.4871C33.3989 30.3357 33.4864 30.1785 33.5755 30.0042C33.7096 29.7418 33.8289 29.4988 33.9358 29.2644C34.0395 29.0384 34.1343 28.8085 34.2199 28.575C34.3042 28.3434 34.3772 28.1079 34.4386 27.8692C34.5019 27.6236 34.5564 27.3644 34.6035 27.08C34.6506 26.7957 34.6904 26.4862 34.7249 26.1406C34.7594 25.7951 34.7888 25.4132 34.8146 24.9841L34.883 23.5436L34.9418 21.7521L34.9837 19.7563L34.9998 17.6694L34.9624 13.5706L34.9123 11.7348L34.8439 10.1585L34.7586 8.92958C34.7277 8.5876 34.6943 8.31827 34.6589 8.13618C34.6197 7.93498 34.5758 7.73471 34.5274 7.53552C34.4804 7.34169 34.4286 7.14904 34.3722 6.95773C34.3172 6.77134 34.2574 6.58638 34.193 6.40304C34.1293 6.22196 34.0618 6.04469 33.9911 5.87123C33.9205 5.69777 33.844 5.52834 33.7644 5.36251C33.6848 5.19667 33.6014 5.03488 33.5138 4.87678C33.4263 4.71868 33.335 4.56451 33.2396 4.41414C33.1441 4.26378 33.0448 4.11723 32.9413 3.97461C32.8384 3.83244 32.7311 3.69352 32.6195 3.55806C32.5085 3.42334 32.3932 3.29216 32.2739 3.16472C32.1548 3.03744 32.0317 2.91396 31.9047 2.79448C31.7777 2.67495 31.6468 2.55924 31.5118 2.44734C31.3763 2.33506 31.2374 2.22704 31.0951 2.1234C30.9514 2.01871 30.8045 1.91843 30.6547 1.82268C30.5028 1.72558 30.3481 1.63299 30.1907 1.54506C30.0306 1.45565 29.868 1.37084 29.703 1.29075C29.4292 1.15766 29.176 1.03959 28.9274 0.934866C28.6831 0.830931 28.4339 0.738621 28.1809 0.658249C27.9263 0.578079 27.6614 0.509346 27.3699 0.450031C27.0783 0.390716 26.7605 0.341268 26.4006 0.299221C26.0408 0.257174 25.6391 0.2232 25.1796 0.194944C24.7201 0.166688 24.2033 0.144486 23.6132 0.126545L21.6077 0.0816955L19.0695 0.051758L15.8192 0.0317985L15.818 0.0315761ZM17.5061 3.11527L22.1933 3.14196L23.9616 3.17605C24.4485 3.18973 24.8201 3.20576 25.038 3.22426C25.3217 3.24814 25.5919 3.27808 25.8503 3.31396C26.0984 3.34821 26.3452 3.39081 26.5904 3.44167C26.8258 3.49101 27.0504 3.54707 27.2654 3.61031C27.4803 3.67355 27.6856 3.74441 27.8826 3.82279C28.0796 3.90117 28.268 3.98739 28.4493 4.0818C28.6292 4.1755 28.8039 4.27861 28.9729 4.39071C29.1411 4.50227 29.3033 4.62247 29.4607 4.75198C29.6181 4.88149 29.7707 5.0203 29.9197 5.16875C30.077 5.32539 30.2221 5.48495 30.3559 5.64955C30.4892 5.81313 30.6125 5.98458 30.7251 6.16298C30.8391 6.34391 30.9418 6.53171 31.0326 6.72529C31.1254 6.92263 31.2088 7.13119 31.2837 7.35286C31.3586 7.57454 31.4254 7.81011 31.4844 8.06184C31.5463 8.32871 31.5982 8.59782 31.6399 8.86859C31.6847 9.15563 31.7231 9.46173 31.7556 9.78948C31.7881 10.1172 31.815 10.4667 31.8372 10.8407C31.8549 11.1406 31.8704 11.5364 31.8835 12.0039L31.9164 13.5977L31.9415 17.502L31.9129 21.4025L31.8786 22.9918L31.8314 24.1477C31.7986 24.6889 31.7641 25.1439 31.7228 25.54C31.7021 25.738 31.6797 25.9212 31.6548 26.0931C31.6315 26.2555 31.6038 26.4172 31.5719 26.5782C31.5428 26.725 31.5089 26.8708 31.4704 27.0154C31.4336 27.1535 31.3921 27.2902 31.3461 27.4255C31.2997 27.5614 31.2493 27.6958 31.1948 27.8287C31.1373 27.969 31.0765 28.108 31.0126 28.2455C30.9558 28.3683 30.896 28.4877 30.8328 28.6039C30.7702 28.719 30.7038 28.832 30.6336 28.9426C30.5641 29.0521 30.4912 29.1585 30.415 29.2616C30.3392 29.3643 30.2597 29.4642 30.1766 29.5612C30.0938 29.6577 30.0075 29.7512 29.9179 29.8415C29.8282 29.9317 29.7352 30.0189 29.6387 30.103C29.5423 30.1871 29.4423 30.2678 29.3388 30.3456C29.2353 30.4234 29.1282 30.4981 29.0176 30.5696C28.9069 30.6412 28.7927 30.7098 28.6749 30.7753C28.5571 30.8407 28.4355 30.9033 28.3105 30.9629C28.1833 31.0233 28.0543 31.0799 27.9238 31.1326C27.7888 31.1871 27.6523 31.2377 27.5145 31.2845C27.2342 31.3801 26.9385 31.4639 26.6272 31.5363C26.3029 31.6112 25.9755 31.6725 25.6459 31.7199C25.5192 31.7384 25.228 31.7558 24.8109 31.772L23.2214 31.8161L18.7151 31.8747L13.9984 31.8821L12.146 31.8623L10.9432 31.8249L10.0563 31.7625C9.78094 31.7393 9.52485 31.7135 9.28489 31.6843C9.04494 31.655 8.82148 31.6224 8.61124 31.5856C8.41201 31.5512 8.214 31.51 8.01753 31.4623C7.83839 31.4187 7.66109 31.3679 7.48605 31.31C7.3173 31.2539 7.15595 31.1923 6.99898 31.1244C6.842 31.0566 6.68951 30.9823 6.53847 30.9011C6.38744 30.8199 6.23798 30.7318 6.08683 30.6357C5.9728 30.5632 5.86258 30.4899 5.7565 30.4122C5.65043 30.3345 5.54795 30.257 5.44928 30.1758C5.35061 30.0947 5.25586 30.011 5.16448 29.9249C5.0737 29.8392 4.98604 29.7503 4.90165 29.6583C4.81756 29.5665 4.73716 29.4721 4.66002 29.3744C4.58258 29.2762 4.50879 29.1752 4.4388 29.0716C4.36777 28.9664 4.30056 28.8587 4.2373 28.7487C4.17339 28.6377 4.11262 28.5229 4.05488 28.4045C3.99616 28.2838 3.94138 28.1613 3.89061 28.037C3.83903 27.9106 3.79014 27.78 3.74417 27.6453C3.65223 27.3756 3.5715 27.0886 3.50131 26.7824C3.43112 26.4763 3.37124 26.1512 3.32056 25.8047C3.26988 25.4582 3.22906 25.0909 3.19655 24.7005C3.17255 24.4129 3.15349 23.9649 3.13891 23.3998L3.10842 21.39L3.11963 16.2663L3.20787 11.3705L3.27515 9.64551L3.31327 9.07535C3.3265 8.92308 3.34018 8.81028 3.3542 8.74256C3.40039 8.51976 3.44693 8.31244 3.49503 8.11835C3.53996 7.93525 3.58995 7.75342 3.64494 7.57308C3.69719 7.40287 3.75225 7.24343 3.81111 7.09239C3.86788 6.94608 3.93114 6.80238 4.00072 6.66172C4.06867 6.52492 4.14166 6.39396 4.22093 6.26647C4.30021 6.13898 4.38576 6.01531 4.47905 5.8923C4.57234 5.7693 4.6728 5.64787 4.78213 5.52476C4.89145 5.40164 5.00952 5.27729 5.13757 5.14913C5.2868 4.99905 5.44219 4.85522 5.60334 4.71801C5.7555 4.58855 5.91418 4.46696 6.07875 4.35371C6.24055 4.24158 6.4065 4.14179 6.57929 4.05007C6.75207 3.95835 6.9317 3.87549 7.12063 3.80093C7.30957 3.72636 7.50803 3.65965 7.71827 3.5991C7.93913 3.53714 8.16245 3.48429 8.38766 3.44066C8.62447 3.39424 8.87597 3.35376 9.14451 3.31845C9.41306 3.28313 9.69875 3.25263 10.0042 3.22617C10.2172 3.20778 10.5843 3.19141 11.0677 3.17761L12.827 3.14286L17.5069 3.11426L17.5061 3.11527Z" fill="url(#paint0_linear_129_57)"/>
<defs>
<linearGradient id="paint0_linear_129_57" x1="-67.3736" y1="49.7627" x2="78.5187" y2="25.2212" gradientUnits="userSpaceOnUse">
<stop offset="1" stop-color="white"/>
</linearGradient>
</defs>
</svg>
