<svg width="35" height="35" viewBox="0 0 35 35" fill="none" xmlns="http://www.w3.org/2000/svg">
<path d="M0.578979 11.6305H7.84296V34.9985H0.578979V11.6305ZM4.20562 2.50438e-06C6.52307 2.50438e-06 8.40666 1.88689 8.40666 4.20839C8.40666 6.52989 6.52307 8.42136 4.20715 8.42136C3.09235 8.41894 2.02388 7.97434 1.23546 7.18483C0.447032 6.39531 0.00282476 5.32513 0 4.20839C-3.28506e-07 3.65535 0.108814 3.10773 0.320222 2.59685C0.531631 2.08596 0.841487 1.62183 1.23208 1.23099C1.62266 0.840141 2.08632 0.53025 2.59655 0.319029C3.10677 0.107808 3.65355 -0.000600812 4.20562 2.50438e-06ZM12.3786 11.6305H19.3324V14.8242H19.4287C20.3972 12.9878 22.762 11.0505 26.3031 11.0505C33.645 11.0505 35 15.8909 35 22.182V35H27.7544V23.6328C27.7544 20.9241 27.7055 17.435 23.9872 17.435C20.2139 17.435 19.6334 20.3885 19.6334 23.4338V34.9939H12.3892V11.6259L12.3786 11.6305Z" fill="white"/>
</svg>
