<svg width="64" height="64" viewBox="0 0 64 64" fill="none" xmlns="http://www.w3.org/2000/svg">
<rect width="64" height="64" fill="#5928E5"/>
<path d="M17.248 46.21C16.576 46.21 15.806 46.14 14.938 46C14.07 45.888 13.23 45.608 12.418 45.16C11.634 44.712 10.976 44.04 10.444 43.144C9.94 42.22 9.688 40.96 9.688 39.364V22.018C9.688 20.646 9.898 19.498 10.318 18.574C10.738 17.65 11.298 16.922 11.998 16.39C12.698 15.858 13.468 15.48 14.308 15.256C15.148 15.032 15.974 14.92 16.786 14.92C18.886 14.92 20.734 14.948 22.33 15.004C23.954 15.06 25.41 15.13 26.698 15.214C27.986 15.27 29.162 15.354 30.226 15.466V20.674H18.634C17.766 20.674 17.094 20.884 16.618 21.304C16.142 21.724 15.904 22.368 15.904 23.236V27.73L28.21 28.066V32.98L15.904 33.316V37.6C15.904 38.328 16.016 38.902 16.24 39.322C16.492 39.714 16.814 39.994 17.206 40.162C17.626 40.302 18.06 40.372 18.508 40.372H30.226V45.58C28.994 45.72 27.622 45.832 26.11 45.916C24.626 46 23.114 46.07 21.574 46.126C20.062 46.182 18.62 46.21 17.248 46.21ZM45.2065 46.252C43.3865 46.252 41.7765 46.042 40.3765 45.622C39.0045 45.202 37.8285 44.432 36.8485 43.312C35.8965 42.192 35.1685 40.596 34.6645 38.524C34.1885 36.424 33.9505 33.708 33.9505 30.376C33.9505 27.156 34.2025 24.524 34.7065 22.48C35.2385 20.408 35.9945 18.812 36.9745 17.692C37.9545 16.544 39.1445 15.746 40.5445 15.298C41.9445 14.85 43.5265 14.626 45.2905 14.626C46.6905 14.626 47.9925 14.71 49.1965 14.878C50.4285 15.018 51.5345 15.2 52.5145 15.424C53.4945 15.62 54.3205 15.844 54.9925 16.096V20.926C54.4885 20.814 53.8025 20.702 52.9345 20.59C52.0945 20.478 51.1285 20.394 50.0365 20.338C48.9445 20.254 47.7965 20.212 46.5925 20.212C45.4165 20.212 44.4085 20.352 43.5685 20.632C42.7565 20.884 42.0985 21.374 41.5945 22.102C41.1185 22.802 40.7545 23.824 40.5025 25.168C40.2785 26.512 40.1665 28.262 40.1665 30.418C40.1665 32.49 40.2645 34.198 40.4605 35.542C40.6845 36.886 41.0345 37.936 41.5105 38.692C41.9865 39.42 42.6305 39.938 43.4425 40.246C44.2825 40.526 45.3325 40.666 46.5925 40.666C48.7205 40.666 50.4425 40.624 51.7585 40.54C53.1025 40.456 54.1805 40.358 54.9925 40.246V45.034C54.2365 45.286 53.3685 45.51 52.3885 45.706C51.4085 45.874 50.3305 46 49.1545 46.084C47.9785 46.196 46.6625 46.252 45.2065 46.252Z" fill="white"/>
</svg>
